<?xml version="1.0" encoding="UTF-8" standalone="no"?>
<svg
   id="openai-horizontal"
   viewBox="0 0 120.0023 29.530164"
   version="1.1"
   sodipodi:docname="315949ff623122869508aabcd20d62f0.svg"
   width="120.0023"
   height="29.530165"
   xmlns:inkscape="http://www.inkscape.org/namespaces/inkscape"
   xmlns:sodipodi="http://sodipodi.sourceforge.net/DTD/sodipodi-0.dtd"
   xmlns="http://www.w3.org/2000/svg"
   xmlns:svg="http://www.w3.org/2000/svg">
  <defs
     id="defs9" />
  <sodipodi:namedview
     id="namedview7"
     pagecolor="#ffffff"
     bordercolor="#666666"
     borderopacity="1.0"
     inkscape:pageshadow="2"
     inkscape:pageopacity="0.0"
     inkscape:pagecheckerboard="0" />
  <path
     d="m 40.702297,6.9800825 c 0,0 -0.05,0 -0.07,0 -0.02,0 -0.05,0 -0.07,0 -4.67,0 -7.58,2.91 -7.58,7.5999995 v 2.53 c 0,4.69 2.9,7.6 7.58,7.6 0.02,0 0.05,0 0.07,0 0.02,0 0.05,0 0.07,0 4.67,0 7.58,-2.91 7.58,-7.6 v -2.53 c 0,-4.6899995 -2.91,-7.5999995 -7.58,-7.5999995 z m 4.31,10.3099995 c 0,3.08 -1.6,4.86 -4.38,4.89 -2.78,-0.03 -4.38,-1.81 -4.38,-4.89 v -2.88 c 0,-3.08 1.6,-4.8599995 4.38,-4.8899995 2.78,0.03 4.38,1.8099995 4.38,4.8899995 z m 40.57,-5.79 c 0,0 -0.06,0 -0.09,0 -0.02,0 -0.03,0 -0.05,0 -1.77,0 -3.03,0.6 -3.65,1.75 l -0.19,0.35 v -1.8 h -3.02 v 12.56 h 3.17 v -7.48 c 0,-1.76 0.95,-2.77 2.59,-2.8 1.57,0.03 2.47,1.02 2.47,2.73 v 7.55 h 3.17 v -8.09 c 0,-2.99 -1.64,-4.77 -4.39,-4.77 z M 120.0023,9.7300825 v -2.4 h -10.46 v 2.4 h 3.67 V 21.950082 h -3.67 v 2.4 h 10.46 v -2.4 h -3.67 V 9.7300825 Z m -18.75,-2.4 v 0 c 0,0 -3.280003,0 -3.280003,0 l -6.1,17.0399995 h 3.43 l 1.17,-3.65 h 6.660003 v 0.04 c 0,0 1.17,3.62 1.17,3.62 h 3.43 l -6.11,-17.0399995 h -0.36 z m -4.030003,10.9799995 2.57,-8.05 2.550003,8.05 z m -39.45,-6.81 c 0,0 -0.05,0 -0.07,0 -0.03,0 -0.05,0 -0.07,0 -1.59,0 -2.96,0.66 -3.68,1.76 l -0.18,0.28 v -1.74 h -3.02 v 16.89 h 3.17 v -5.9 l 0.18,0.27 c 0.68,1.01 2.01,1.61 3.56,1.61 0.03,0 0.05,0 0.08,0 0.02,0 0.04,0 0.07,0 2.61,0 5.24,-1.7 5.24,-5.51 v -2.14 c 0,-2.74 -1.62,-5.51 -5.26,-5.51 z m 2.1,7.5 c 0,2 -1.15,3.24 -3.01,3.28 -1.73,-0.03 -2.94,-1.35 -2.94,-3.23 v -1.89 c 0,-1.9 1.22,-3.24 2.97,-3.28 1.84,0.03 2.98,1.28 2.98,3.28 z m 11.05,-7.5 v 0 c -0.06,0 -0.12,0.01 -0.18,0.01 -0.06,0 -0.12,-0.01 -0.18,-0.01 v 0 c -3.57,0 -5.78,2.23 -5.78,5.81 v 1.76 c 0,3.45 2.24,5.59 5.83,5.59 0.08,0 0.15,0 0.22,-0.01 0.05,0 0.09,0.01 0.14,0.01 2.41,0 4.09,-0.88 5.16,-2.7 l -2.13,-1.23 c -0.71,1.05 -1.66,1.84 -3.02,1.84 -1.82,0 -2.91,-1.12 -2.91,-3.01 v -0.5 h 8.44 v -2.08 c 0,-3.34 -2.19,-5.49 -5.59,-5.49 z m -2.86,5.54 v -0.3 c 0,-2 0.95,-3.12 2.68,-3.2 1.66,0.08 2.66,1.18 2.66,2.99 v 0.5 c 0,0 -5.34,0 -5.34,0 z"
     id="path2" />
  <path
     d="m 27.212297,12.080082 c 0.67,-2.01 0.44,-4.2099995 -0.63,-6.0399995 -1.61,-2.8 -4.85,-4.24 -8.01,-3.57 -1.41,-1.58000004 -3.43,-2.48000004 -5.55,-2.470000044226 -3.2299999,0 -6.0999999,2.080000044226 -7.0999999,5.150000044226 -2.08,0.43 -3.87,1.73 -4.92,3.57 -1.62,2.7999995 -1.25,6.3199995 0.92,8.7199995 -0.67,2.01 -0.44,4.21 0.63,6.03 1.61,2.81 4.85,4.25 8.0199999,3.58 1.4,1.58 3.42,2.49 5.54,2.48 3.23,0 6.1,-2.08 7.1,-5.15 2.08,-0.43 3.87,-1.73 4.91,-3.57 1.63,-2.8 1.26,-6.32 -0.91,-8.72 z m -2.3,-5.0699995 c 0.64,1.12 0.88,2.43 0.66,3.6999995 -0.04,-0.03 -0.12,-0.07 -0.17,-0.1 l -5.88,-3.3999995 c -0.3,-0.17 -0.67,-0.17 -0.97,0 l -6.89,3.9799995 V 8.2700825 l 5.69,-3.29 c 2.65,-1.53 6.03,-0.62 7.56,2.03 z m -13.25,6.0699995 2.9,-1.68 2.9,1.68 v 3.35 l -2.9,1.68 -2.9,-1.68 z m 1.35,-11.1499995 c 1.3,0 2.55,0.45 3.55,1.28 -0.04,0.02 -0.12,0.07 -0.18,0.1 l -5.88,3.39 c -0.3,0.17 -0.48,0.49 -0.48,0.84 v 7.9599995 l -2.5299999,-1.46 V 7.4600825 c 0,-3.06 2.47,-5.53 5.5299999,-5.54 z m -10.3299999,7.76 v 0 c 0.65,-1.12 1.66,-1.98 2.88,-2.43 v 6.9899995 c 0,0.35 0.18,0.66 0.48,0.84 l 6.8799999,3.97 -2.54,1.47 -5.6799999,-3.28 c -2.64,-1.53 -3.55,-4.91 -2.02,-7.5599995 z m 1.55,12.8299995 v 0 c -0.65,-1.11 -0.88,-2.43 -0.66,-3.7 0.04,0.03 0.12,0.07 0.17,0.1 l 5.88,3.4 c 0.3,0.17 0.6699999,0.17 0.9699999,0 l 6.88,-3.98 v 2.92 l -5.69,3.28 c -2.6499999,1.52 -6.0299999,0.62 -7.5599999,-2.02 z m 11.8899999,5.08 c -1.29,0 -2.55,-0.45 -3.54,-1.28 0.04,-0.02 0.13,-0.07 0.18,-0.1 l 5.88,-3.39 c 0.3,-0.17 0.49,-0.49 0.48,-0.84 v -7.95 l 2.53,1.46 v 6.57 c 0,3.06 -2.48,5.54 -5.53,5.54 z m 10.34,-7.76 c -0.65,1.12 -1.67,1.98 -2.88,2.42 v -6.99 c 0,-0.35 -0.18,-0.67 -0.48,-0.84 v 0 l -6.89,-3.98 2.53,-1.4599995 5.69,3.2799995 c 2.65,1.53 3.55,4.91 2.02,7.56 z"
     id="path4" />
</svg>
